<svg width="0" height="0" class="hidden">
  <symbol fill="none" xmlns="http://www.w3.org/2000/svg" viewBox="0 0 24 24" id="icon-add">
    <path d="M11.1483 12.852H5.70234C5.46184 12.852 5.25975 12.7696 5.09609 12.605C4.93242 12.4405 4.85059 12.2374 4.85059 11.9957C4.85059 11.7542 4.93242 11.5526 5.09609 11.391C5.25975 11.2293 5.46184 11.1485 5.70234 11.1485H11.1483V5.70248C11.1483 5.46248 11.2307 5.25956 11.3953 5.09373C11.5598 4.92773 11.7629 4.84473 12.0046 4.84473C12.2461 4.84473 12.4477 4.92773 12.6093 5.09373C12.771 5.25956 12.8518 5.46248 12.8518 5.70248V11.1485H18.2978C18.5378 11.1485 18.7408 11.2308 18.9066 11.3955C19.0726 11.56 19.1556 11.7631 19.1556 12.0047C19.1556 12.2462 19.0726 12.4478 18.9066 12.6095C18.7408 12.7711 18.5378 12.852 18.2978 12.852H12.8518V18.298C12.8518 18.5385 12.7695 18.7406 12.6048 18.9042C12.4403 19.0679 12.2373 19.1497 11.9956 19.1497C11.7541 19.1497 11.5525 19.0679 11.3908 18.9042C11.2292 18.7406 11.1483 18.5385 11.1483 18.298V12.852Z" fill="black"></path>
  </symbol>
  <symbol fill="none" xmlns="http://www.w3.org/2000/svg" viewBox="0 0 48 48" id="icon-close">
    <path d="M29.5996 17.925C29.7639 17.925 29.8659 17.9735 29.9463 18.0539C30.0265 18.1342 30.0751 18.2357 30.0752 18.3996C30.0752 18.5638 30.0266 18.6659 29.9463 18.7463L24.6924 24.0002L25.0459 24.3537L29.9463 29.2531C30.0267 29.3335 30.0752 29.4357 30.0752 29.5998C30.0752 29.7641 30.0267 29.8661 29.9463 29.9465C29.8659 30.0269 29.7639 30.0754 29.5996 30.0754C29.4355 30.0754 29.3333 30.0269 29.2529 29.9465L24.3535 25.0461L24 24.6926L18.7461 29.9465C18.6657 30.0268 18.5636 30.0754 18.3994 30.0754C18.2355 30.0753 18.134 30.0267 18.0537 29.9465C17.9733 29.8661 17.9248 29.7641 17.9248 29.5998C17.9248 29.4357 17.9733 29.3335 18.0537 29.2531L23.3066 24.0002L22.9531 23.6467L18.0537 18.7463C17.9733 18.6659 17.9248 18.5639 17.9248 18.3996C17.9249 18.2356 17.9734 18.1342 18.0537 18.0539C18.134 17.9736 18.2354 17.9251 18.3994 17.925C18.5637 17.925 18.6657 17.9735 18.7461 18.0539L23.6465 22.9533L24 23.3068L29.2529 18.0539C29.3333 17.9735 29.4355 17.925 29.5996 17.925Z" fill="black" stroke="black"></path>
  </symbol>
  <symbol transform="rotate(-90)" fill="none" xmlns="http://www.w3.org/2000/svg" viewBox="0 0 48 48" id="icon-slider-arrow-up">
    <path d="M4 1H44C45.6569 1 47 2.34315 47 4V44C47 45.6569 45.6569 47 44 47H4C2.34315 47 1 45.6569 1 44V4C1 2.34315 2.34315 1 4 1Z" fill="#FAF7E6"></path>
    <path d="M4 1H44C45.6569 1 47 2.34315 47 4V44C47 45.6569 45.6569 47 44 47H4C2.34315 47 1 45.6569 1 44V4C1 2.34315 2.34315 1 4 1Z" stroke="black" stroke-width="2"></path>
    <path d="M28.9051 24.8517H16.7023C16.4577 24.8517 16.2546 24.7709 16.0931 24.6092C15.9314 24.4476 15.8506 24.2445 15.8506 24C15.8506 23.7555 15.9314 23.5524 16.0931 23.3907C16.2546 23.2291 16.4577 23.1482 16.7023 23.1482H28.9051L23.4033 17.6467C23.2333 17.4767 23.1473 17.2765 23.1451 17.046C23.1428 16.8153 23.2267 16.6146 23.3968 16.4437C23.5672 16.2722 23.7679 16.1875 23.9991 16.1895C24.2303 16.1915 24.4315 16.2774 24.6028 16.4472L31.5528 23.3972C31.6438 23.4892 31.71 23.5849 31.7513 23.6842C31.7928 23.7837 31.8136 23.8892 31.8136 24.0007C31.8136 24.1122 31.7928 24.2175 31.7513 24.3165C31.71 24.4157 31.6438 24.5111 31.5528 24.6027L24.5968 31.5527C24.421 31.7266 24.2196 31.8135 23.9926 31.8135C23.7658 31.8135 23.5673 31.7261 23.3973 31.5512C23.2275 31.3811 23.1426 31.1823 23.1426 30.955C23.1426 30.7278 23.2275 30.5292 23.3973 30.3592L28.9051 24.8517Z" fill="black"></path>
  </symbol>
  <symbol fill="none" xmlns="http://www.w3.org/2000/svg" viewBox="0 0 48 48" id="icon-burger">
    <path d="M15.7023 30.2212C15.4618 30.2212 15.2598 30.139 15.0961 29.9745C14.9324 29.81 14.8506 29.6049 14.8506 29.3592C14.8506 29.1176 14.9324 28.9159 15.0961 28.7542C15.2598 28.5927 15.4618 28.512 15.7023 28.512H32.2978C32.5383 28.512 32.7414 28.5942 32.9071 28.7587C33.0728 28.9232 33.1556 29.1263 33.1556 29.368C33.1556 29.6137 33.0728 29.8172 32.9071 29.9787C32.7414 30.1404 32.5383 30.2212 32.2978 30.2212H15.7023ZM15.7023 24.8517C15.4618 24.8517 15.2598 24.7694 15.0961 24.6047C14.9324 24.4402 14.8506 24.2372 14.8506 23.9955C14.8506 23.754 14.9324 23.5524 15.0961 23.3907C15.2598 23.2291 15.4618 23.1482 15.7023 23.1482H32.2978C32.5383 23.1482 32.7414 23.2306 32.9071 23.3952C33.0728 23.5597 33.1556 23.7628 33.1556 24.0045C33.1556 24.246 33.0728 24.4476 32.9071 24.6092C32.7414 24.7709 32.5383 24.8517 32.2978 24.8517H15.7023ZM15.7023 19.488C15.4618 19.488 15.2598 19.4057 15.0961 19.2412C14.9324 19.0767 14.8506 18.8717 14.8506 18.626C14.8506 18.3843 14.9324 18.1827 15.0961 18.0212C15.2598 17.8596 15.4618 17.7787 15.7023 17.7787H32.2978C32.5383 17.7787 32.7414 17.861 32.9071 18.0255C33.0728 18.19 33.1556 18.3931 33.1556 18.6347C33.1556 18.8804 33.0728 19.0841 32.9071 19.2457C32.7414 19.4072 32.5383 19.488 32.2978 19.488H15.7023Z" fill="black"></path>
  </symbol>
  <symbol fill="none" xmlns="http://www.w3.org/2000/svg" viewBox="0 0 24 24" id="icon-x">
    <path d="M17.1761 4.24316H19.9362L13.9061 11.0206L21 20.2432H15.4456L11.0951 14.6498L6.11723 20.2432H3.35544L9.80517 12.994L3 4.24316H8.69545L12.6279 9.35578L17.1761 4.24316ZM16.2073 18.6186H17.7368L7.86441 5.78244H6.2232L16.2073 18.6186Z" fill="black"></path>
  </symbol>
  <symbol fill="none" xmlns="http://www.w3.org/2000/svg" viewBox="0 0 24 24" id="icon-instagram">
    <path d="M11.9988 4.62091C14.4032 4.62091 14.6878 4.63159 15.6332 4.67378C16.5123 4.71258 16.9864 4.85994 17.303 4.98311C17.7215 5.14509 18.0235 5.34194 18.3362 5.65465C18.6528 5.97129 18.8458 6.26994 19.0111 6.68838C19.1343 7.00503 19.2816 7.48253 19.3204 8.35822C19.3626 9.3076 19.3733 9.59218 19.3733 11.9932C19.3733 14.3942 19.3626 14.6821 19.3204 15.6281C19.2816 16.5072 19.1343 16.9813 19.0111 17.298C18.8491 17.7164 18.6528 18.0184 18.3396 18.3311C18.0229 18.6478 17.7243 18.8407 17.3064 19.0061C16.9898 19.1292 16.5117 19.2766 15.6366 19.3154C14.6872 19.3576 14.4026 19.3683 12.0016 19.3683C9.60062 19.3683 9.31266 19.3576 8.36666 19.3154C7.48759 19.2766 7.01346 19.1292 6.69682 19.0061C6.27838 18.8441 5.97635 18.6478 5.66308 18.3345C5.34644 18.0179 5.15353 17.7192 4.98817 17.3013C4.865 16.9847 4.71765 16.5066 4.67884 15.6315C4.63666 14.6821 4.62597 14.3975 4.62597 11.9965C4.62597 9.59556 4.63666 9.3076 4.67884 8.3616C4.71765 7.48253 4.865 7.0084 4.98817 6.69176C5.15015 6.27331 5.347 5.97129 5.65971 5.65802C5.97635 5.34137 6.275 5.14846 6.69344 4.98311C7.01009 4.85994 7.48759 4.71258 8.36328 4.67378C9.30872 4.63159 9.59387 4.62091 11.9982 4.62091H11.9988ZM11.9988 3.00056C9.55563 3.00056 9.25023 3.01125 8.29017 3.05343C7.33405 3.09561 6.67657 3.25028 6.1074 3.47187C5.51348 3.70359 5.01067 4.00955 4.5118 4.51236C4.00899 5.01179 3.70303 5.51404 3.47131 6.10459C3.24972 6.6777 3.09505 7.33123 3.05287 8.28736C3.01069 9.25079 3 9.55619 3 11.9994C3 14.4425 3.01069 14.7479 3.05287 15.708C3.09505 16.6641 3.24972 17.3216 3.47131 17.8908C3.70359 18.4847 4.00899 18.9875 4.5118 19.4864C5.01067 19.9852 5.51348 20.2951 6.10402 20.5235C6.67713 20.7451 7.33067 20.8997 8.28679 20.9419C9.24629 20.9841 9.55225 20.9948 11.9954 20.9948C14.4386 20.9948 14.7446 20.9841 15.7041 20.9419C16.6602 20.8997 17.3177 20.7451 17.8868 20.5235C18.4774 20.2951 18.9802 19.9858 19.4791 19.4864C19.9779 18.9869 20.2878 18.4847 20.5162 17.8941C20.7378 17.321 20.8924 16.6675 20.9346 15.7114C20.9768 14.7519 20.9875 14.4459 20.9875 12.0027C20.9875 9.55956 20.9768 9.25417 20.9346 8.29411C20.8924 7.33798 20.7378 6.68051 20.5162 6.11133C20.2946 5.51348 19.9886 5.01123 19.4864 4.5118C18.9875 4.01293 18.4847 3.70303 17.8941 3.47469C17.321 3.25309 16.6675 3.09842 15.7114 3.05624C14.7485 3.01069 14.4425 3 11.9994 3L11.9988 3.00056Z" fill="black"></path>
    <path d="M11.9985 7.37695C9.44683 7.37695 7.37598 9.44724 7.37598 11.9995C7.37598 14.5518 9.44626 16.6221 11.9985 16.6221C14.5508 16.6221 16.6211 14.5518 16.6211 11.9995C16.6211 9.4478 14.5508 7.37695 11.9985 7.37695ZM11.9985 14.9978C10.3428 14.9978 9.00026 13.6553 9.00026 11.9995C9.00026 10.3437 10.3428 9.00124 11.9985 9.00124C13.6543 9.00124 14.9968 10.3437 14.9968 11.9995C14.9968 13.6553 13.6543 14.9978 11.9985 14.9978Z" fill="black"></path>
    <path d="M17.8822 7.19355C17.8822 7.78972 17.3991 8.27284 16.8029 8.27284C16.2068 8.27284 15.7236 7.78972 15.7236 7.19355C15.7236 6.59738 16.2068 6.11426 16.8029 6.11426C17.3991 6.11426 17.8822 6.59738 17.8822 7.19355Z" fill="black"></path>
  </symbol>
  <symbol fill="none" xmlns="http://www.w3.org/2000/svg" viewBox="0 0 24 24" id="icon-location">
    <path d="M12 2.34473C14.0243 2.34473 15.803 3.04933 17.3555 4.47754C18.879 5.87913 19.6553 7.7626 19.6553 10.1826C19.6552 11.1679 19.4383 12.1526 18.9961 13.1406C18.5426 14.154 17.9735 15.1246 17.2881 16.0527C16.5967 16.9889 15.8459 17.8627 15.0352 18.6738C14.2121 19.4974 13.4448 20.2259 12.7334 20.8594L12.7275 20.8643L12.7227 20.8691C12.6321 20.9548 12.5276 21.017 12.4053 21.0566C12.2588 21.1041 12.1216 21.126 11.9922 21.126C11.8629 21.126 11.7293 21.104 11.5898 21.0576C11.4741 21.0191 11.376 20.959 11.29 20.875L11.2812 20.8662L11.2715 20.8584C10.5565 20.2252 9.78753 19.497 8.96484 18.6738C8.1541 17.8627 7.40327 16.9889 6.71191 16.0527C6.02666 15.1248 5.45823 14.1547 5.00684 13.1416C4.56647 12.1534 4.35064 11.1682 4.35059 10.1826C4.35059 7.76231 5.12671 5.8791 6.64844 4.47754C8.19877 3.04953 9.97573 2.34475 12 2.34473ZM12 3.05371C10.0648 3.05371 8.40993 3.72261 7.06836 5.05664C5.71878 6.39887 5.05371 8.12233 5.05371 10.1826C5.05382 11.6021 5.64762 13.1413 6.75195 14.7861C7.85681 16.4317 9.49748 18.2606 11.6592 20.2715L11.9961 20.585L12.3359 20.2764C14.5487 18.2689 16.2063 16.4381 17.2891 14.7852C18.3679 13.138 18.9462 11.5989 18.9463 10.1826C18.9463 8.12228 18.2813 6.39888 16.9316 5.05664V5.05566C15.5898 3.72177 13.9351 3.05375 12 3.05371ZM11.998 8.70215C12.3642 8.7022 12.662 8.82522 12.9189 9.08105C13.1751 9.33617 13.2979 9.63248 13.2979 9.99805C13.2978 10.3642 13.1749 10.6605 12.9199 10.915C12.6651 11.1694 12.3684 11.292 12.002 11.292C11.6349 11.2919 11.3392 11.169 11.085 10.916C10.8314 10.6634 10.7081 10.3691 10.708 10.0029C10.708 9.68146 10.8023 9.41279 10.9961 9.17871L11.085 9.08105C11.3379 8.82567 11.6325 8.70215 11.998 8.70215Z" fill="black" stroke="black"></path>
  </symbol>
  <symbol fill="none" xmlns="http://www.w3.org/2000/svg" viewBox="0 0 24 24" id="icon-facebook">
    <path d="M22 12.3043C22 6.74767 17.5229 2.24316 12 2.24316C6.47715 2.24316 2 6.74767 2 12.3043C2 17.326 5.65684 21.4884 10.4375 22.2432V15.2126H7.89844V12.3043H10.4375V10.0877C10.4375 7.56612 11.9305 6.17328 14.2146 6.17328C15.3088 6.17328 16.4531 6.36979 16.4531 6.36979V8.84577H15.1922C13.95 8.84577 13.5625 9.62138 13.5625 10.4171V12.3043H16.3359L15.8926 15.2126H13.5625V22.2432C18.3432 21.4884 22 17.3262 22 12.3043Z" fill="black"></path>
  </symbol>
  <symbol fill="none" xmlns="http://www.w3.org/2000/svg" viewBox="0 0 24 24" id="icon-call">
    <path d="M4.11914 3.34473H7.61914C7.80287 3.34474 7.9305 3.39945 8.03516 3.49805C8.12866 3.58614 8.20717 3.70059 8.26562 3.85156L8.31738 4.01465L8.98242 7.02832C9.01509 7.26011 9.00757 7.44511 8.97266 7.5918C8.94151 7.72276 8.87973 7.83104 8.78027 7.92578L8.77344 7.93164L6.25586 10.415L5.97656 10.6904L6.17676 11.0264C6.60349 11.7435 7.05697 12.416 7.53711 13.042C8.01993 13.6715 8.55611 14.2696 9.14453 14.8369C9.75791 15.4701 10.3991 16.0453 11.0684 16.5605C11.7435 17.0804 12.449 17.5353 13.1846 17.9248L13.5156 18.0996L13.7764 17.832L16.1816 15.3643L16.1914 15.3535C16.331 15.2021 16.4776 15.111 16.6338 15.0645C16.7648 15.0256 16.8946 15.012 17.0254 15.0215L17.1572 15.0391L19.9775 15.6631C20.1433 15.7092 20.2751 15.7806 20.3818 15.875L20.4814 15.9775C20.5982 16.1186 20.6553 16.2764 20.6553 16.4707V19.8809C20.6553 20.1178 20.5811 20.2895 20.4375 20.4316C20.2911 20.5766 20.1182 20.6494 19.8867 20.6494C18.0116 20.6494 16.0913 20.1991 14.1221 19.2842C12.1539 18.3698 10.323 17.0691 8.62988 15.376C7.04282 13.7889 5.79979 12.0798 4.89551 10.249L4.71875 9.88086C3.80172 7.90938 3.35059 5.99008 3.35059 4.11914C3.3506 3.94128 3.39186 3.79881 3.47363 3.67773L3.56934 3.56348C3.71339 3.41863 3.88514 3.34473 4.11914 3.34473ZM4.06641 4.5752C4.09734 5.28818 4.20935 6.0365 4.39941 6.81836C4.59098 7.60639 4.8907 8.47618 5.29492 9.4248L5.58398 10.1035L6.10742 9.58301L8.12695 7.5752L8.32031 7.38281L8.2627 7.11621L7.69434 4.44922L7.60938 4.05371H4.04395L4.06641 4.5752ZM19.9463 16.377L19.5479 16.2949L17.0625 15.7803L16.791 15.7246L16.5986 15.9248L14.6357 17.9824L14.1543 18.4863L14.7871 18.7812C15.482 19.1045 16.2354 19.3664 17.0449 19.5693C17.8556 19.7725 18.6478 19.8945 19.4209 19.9336L19.9463 19.96V16.377Z" fill="black" stroke="black"></path>
  </symbol>
  <symbol fill="none" xmlns="http://www.w3.org/2000/svg" viewBox="0 0 48 48" id="icon-slider-arrow-right">
    <path d="M4 1H44C45.6569 1 47 2.34315 47 4V44C47 45.6569 45.6569 47 44 47H4C2.34315 47 1 45.6569 1 44V4C1 2.34315 2.34315 1 4 1Z" fill="#FAF7E6"></path>
    <path d="M4 1H44C45.6569 1 47 2.34315 47 4V44C47 45.6569 45.6569 47 44 47H4C2.34315 47 1 45.6569 1 44V4C1 2.34315 2.34315 1 4 1Z" stroke="black" stroke-width="2"></path>
    <path d="M28.9051 24.8517H16.7023C16.4577 24.8517 16.2546 24.7709 16.0931 24.6092C15.9314 24.4476 15.8506 24.2445 15.8506 24C15.8506 23.7555 15.9314 23.5524 16.0931 23.3907C16.2546 23.2291 16.4577 23.1482 16.7023 23.1482H28.9051L23.4033 17.6467C23.2333 17.4767 23.1473 17.2765 23.1451 17.046C23.1428 16.8153 23.2267 16.6146 23.3968 16.4437C23.5672 16.2722 23.7679 16.1875 23.9991 16.1895C24.2303 16.1915 24.4315 16.2774 24.6028 16.4472L31.5528 23.3972C31.6438 23.4892 31.71 23.5849 31.7513 23.6842C31.7928 23.7837 31.8136 23.8892 31.8136 24.0007C31.8136 24.1122 31.7928 24.2175 31.7513 24.3165C31.71 24.4157 31.6438 24.5111 31.5528 24.6027L24.5968 31.5527C24.421 31.7266 24.2196 31.8135 23.9926 31.8135C23.7658 31.8135 23.5673 31.7261 23.3973 31.5512C23.2275 31.3811 23.1426 31.1823 23.1426 30.955C23.1426 30.7278 23.2275 30.5292 23.3973 30.3592L28.9051 24.8517Z" fill="black"></path>
  </symbol>
  <symbol fill="none" xmlns="http://www.w3.org/2000/svg" viewBox="0 0 24 24" id="icon-mail">
    <path d="M3.05371 5.74219V18.9463H20.9463V6.13867L20.1709 6.64844L12.2148 11.8867C12.1545 11.9184 12.1021 11.944 12.0566 11.9619C12.0535 11.9629 12.0367 11.9678 12 11.9678C11.9627 11.9678 11.9461 11.9628 11.9434 11.9619C11.8977 11.9439 11.8449 11.9186 11.7842 11.8867L4.05371 6.7959V6.39648L11.7266 11.4219L12 11.6016L12.2734 11.4229L20.6201 5.97266L21.6309 5.31152C21.6465 5.38933 21.6553 5.46973 21.6553 5.55371V18.4463C21.6553 18.7675 21.543 19.041 21.2939 19.2891C21.0451 19.5371 20.7703 19.6494 20.4463 19.6494H3.55371C3.23199 19.6494 2.95881 19.5371 2.71094 19.2891L2.62402 19.1953C2.43636 18.9725 2.35059 18.7279 2.35059 18.4463V5.55371C2.3506 5.46519 2.35965 5.38047 2.37695 5.29883L3.05371 5.74219ZM3.55371 4.34473H20.4463C20.7697 4.34473 21.0439 4.4579 21.293 4.70703H21.2939C21.4036 4.81669 21.4851 4.93216 21.5439 5.05371H2.46094C2.51962 4.93172 2.60139 4.81595 2.71094 4.70605H2.71191C2.95988 4.45718 3.23264 4.34476 3.55371 4.34473Z" fill="black" stroke="black"></path>
  </symbol>
  <symbol fill="none" xmlns="http://www.w3.org/2000/svg" viewBox="0 0 48 48" id="icon-slider-arrow-left">
    <path d="M4 1H44C45.6569 1 47 2.34315 47 4V44C47 45.6569 45.6569 47 44 47H4C2.34315 47 1 45.6569 1 44V4C1 2.34315 2.34315 1 4 1Z" fill="#FAF7E6"></path>
    <path d="M4 1H44C45.6569 1 47 2.34315 47 4V44C47 45.6569 45.6569 47 44 47H4C2.34315 47 1 45.6569 1 44V4C1 2.34315 2.34315 1 4 1Z" stroke="black" stroke-width="2"></path>
    <path d="M19.095 24.8518L24.5968 30.3533C24.7668 30.5236 24.8527 30.7236 24.8545 30.9533C24.8565 31.1829 24.7726 31.3836 24.6028 31.5553C24.4328 31.7274 24.2322 31.8125 24.001 31.8105C23.7699 31.8085 23.5686 31.7226 23.3973 31.5528L16.4473 24.6028C16.3563 24.5108 16.2901 24.4151 16.2488 24.3158C16.2073 24.2163 16.1865 24.1108 16.1865 23.9993C16.1865 23.8878 16.2073 23.7825 16.2488 23.6835C16.2901 23.5844 16.3563 23.4889 16.4473 23.3973L23.4033 16.4413C23.5791 16.2714 23.7805 16.1865 24.0075 16.1865C24.2344 16.1865 24.4328 16.2714 24.6028 16.4413C24.7726 16.6153 24.8575 16.816 24.8575 17.0435C24.8575 17.2712 24.7726 17.4703 24.6028 17.6408L19.095 23.1483H31.2978C31.5419 23.1483 31.7459 23.2291 31.9098 23.3908C32.0736 23.5524 32.1555 23.7555 32.1555 24C32.1555 24.2445 32.0736 24.4476 31.9098 24.6093C31.7459 24.7709 31.5419 24.8518 31.2978 24.8518H19.095Z" fill="black"></path>
  </symbol>
  <symbol fill="none" xmlns="http://www.w3.org/2000/svg" viewBox="0 0 300 21" id="icon-decoration">
    <g clip-path="url(#clip0_8259_80740)">
      <path d="M130.97 9.24263H17.6752C17.2678 9.24263 16.9375 9.57294 16.9375 9.97959C16.9375 10.3862 17.2678 10.7166 17.6752 10.7166H130.97C131.377 10.7166 131.707 10.3862 131.707 9.97959C131.707 9.57294 131.377 9.24263 130.97 9.24263Z" fill="#1D1D1B"></path>
      <path d="M12.5408 2.90695C17.0185 2.90695 21.1961 4.10725 23.3715 5.35063C26.1659 6.947 38.6594 14.6409 38.7856 14.7187C39.0849 14.9039 39.1779 15.2962 38.9935 15.5955C38.8098 15.8948 38.4183 15.9893 38.1174 15.8034C37.992 15.7263 25.5158 8.04299 22.7388 6.45645C19.8144 4.78525 13.0064 3.19644 7.0291 4.90619C3.60205 5.88502 2.22488 7.71268 1.67311 9.07398C1.02232 10.6794 1.17198 12.5736 2.07296 14.1382C3.85829 17.238 8.52721 18.501 13.9686 17.3551C17.2626 16.6613 19.1266 14.5479 19.209 12.9115C19.2709 11.6688 18.3526 10.6817 16.6232 10.1329L16.4607 10.083L16.7917 8.85176L16.6088 9.46249L16.825 8.86234L17.0109 8.91903C19.308 9.64843 20.5733 11.1269 20.4811 12.9749C20.3548 15.4995 17.7267 17.8661 14.2309 18.6015C8.24074 19.8615 3.03441 18.3612 0.969408 14.7739C-0.126583 12.8714 -0.304209 10.5615 0.492463 8.59476C1.15081 6.97119 2.75776 4.80113 6.6799 3.68095C8.59599 3.13295 10.5967 2.90695 12.5408 2.90695Z" fill="#1D1D1B"></path>
      <path d="M26.6673 6.71583C26.7927 6.79368 39.287 14.4883 42.0807 16.0847C45.2016 17.8677 52.4419 19.5623 58.773 17.7543C62.6944 16.6342 64.3021 14.4633 64.9604 12.8398C65.7571 10.873 65.5795 8.56238 64.4827 6.66065C62.9045 3.91689 59.4865 2.39309 55.2855 2.39309C53.9945 2.39309 52.6301 2.5367 51.222 2.83375C50.3807 3.00987 49.5803 3.28122 48.841 3.63874C46.3414 4.85037 44.8229 6.92293 44.9733 8.9199C44.9816 9.03403 45.0005 9.16177 45.0255 9.29481C45.3702 9.03555 45.7798 8.83978 46.2477 8.72187C46.2039 7.29859 47.4488 5.72943 49.3966 4.78537C50.0413 4.47245 50.7443 4.23586 51.4843 4.08016C56.9264 2.93655 61.5946 4.19656 63.3792 7.29632C64.2809 8.8617 64.4298 10.7551 63.7798 12.3613C63.228 13.7226 61.8508 15.5503 58.4238 16.5291C52.4465 18.2381 45.6385 16.65 42.7133 14.9788C39.9363 13.3923 27.4609 5.70903 27.3354 5.63117C27.0376 5.4475 26.6446 5.54047 26.4586 5.83903C26.275 6.13835 26.3672 6.5314 26.6673 6.71583Z" fill="#1D1D1B"></path>
      <path d="M63.0374 6.71583C63.1629 6.79368 75.6571 14.4883 78.4508 16.0847C81.5717 17.8677 88.8121 19.5623 95.1431 17.7543C99.0645 16.6342 100.672 14.4633 101.331 12.8398C102.127 10.873 101.95 8.56238 100.853 6.66065C99.2746 3.91689 95.8566 2.39309 91.6548 2.39309C90.3646 2.39309 89.0003 2.5367 87.5921 2.83375C86.7508 3.00987 85.9504 3.28122 85.2112 3.63874C82.7115 4.85037 81.193 6.92293 81.3434 8.9199C81.3518 9.03403 81.3707 9.16177 81.3956 9.29481C81.7403 9.03555 82.1499 8.83978 82.6178 8.72187C82.574 7.29859 83.8189 5.72943 85.7667 4.78537C86.4115 4.47245 87.1144 4.23586 87.8544 4.08016C93.2965 2.93655 97.9647 4.19656 99.7493 7.29632C100.651 8.8617 100.8 10.7551 100.15 12.3613C99.5981 13.7226 98.2209 15.5503 94.7939 16.5291C88.8166 18.2381 82.0086 16.65 79.0834 14.9788C76.3064 13.3923 63.831 5.70903 63.7056 5.63117C63.4077 5.4475 63.0147 5.54047 62.8288 5.83903C62.6451 6.13835 62.7373 6.5314 63.0374 6.71583Z" fill="#1D1D1B"></path>
      <path d="M18.9048 10.2336L16.5547 7.88354L14.2046 10.2336L16.5547 12.5837L18.9048 10.2336Z" fill="#1D1D1B"></path>
      <path d="M14.7495 10.2336L12.3994 7.88354L10.0493 10.2336L12.3994 12.5837L14.7495 10.2336Z" fill="#1D1D1B"></path>
      <path d="M168.499 9.24263H281.794C282.201 9.24263 282.532 9.57294 282.532 9.97959C282.532 10.3862 282.201 10.7166 281.794 10.7166H168.499C168.092 10.7166 167.762 10.3862 167.762 9.97959C167.762 9.57294 168.092 9.24263 168.499 9.24263Z" fill="#1D1D1B"></path>
      <path d="M286.928 2.90695C282.451 2.90695 278.273 4.10725 276.098 5.35063C273.303 6.947 260.81 14.6409 260.683 14.7187C260.384 14.9039 260.291 15.2962 260.476 15.5955C260.659 15.8948 261.051 15.9893 261.352 15.8034C261.477 15.7263 273.953 8.04299 276.73 6.45645C279.655 4.78525 286.463 3.19644 292.44 4.90619C295.867 5.88502 297.244 7.71268 297.796 9.07398C298.447 10.6794 298.297 12.5736 297.396 14.1382C295.611 17.238 290.942 18.501 285.5 17.3551C282.206 16.6613 280.343 14.5479 280.26 12.9115C280.198 11.6688 281.117 10.6817 282.846 10.1329L283.008 10.083L282.677 8.85176L282.86 9.46249L282.644 8.86234L282.458 8.91903C280.161 9.64843 278.896 11.1269 278.988 12.9749C279.114 15.4995 281.742 17.8661 285.238 18.6015C291.228 19.8615 296.435 18.3612 298.5 14.7739C299.596 12.8714 299.773 10.5615 298.977 8.59476C298.318 6.97119 296.711 4.80113 292.789 3.68095C290.873 3.13295 288.872 2.90695 286.928 2.90695Z" fill="#1D1D1B"></path>
      <path d="M272.801 6.71583C272.676 6.79368 260.181 14.4883 257.388 16.0847C254.267 17.8677 247.027 19.5623 240.695 17.7543C236.774 16.6342 235.166 14.4633 234.508 12.8398C233.711 10.873 233.889 8.56238 234.986 6.66065C236.564 3.91689 239.982 2.39309 244.183 2.39309C245.474 2.39309 246.838 2.5367 248.246 2.83375C249.088 3.00987 249.888 3.28122 250.627 3.63874C253.127 4.85037 254.646 6.92293 254.495 8.9199C254.487 9.03403 254.468 9.16177 254.443 9.29481C254.098 9.03555 253.689 8.83978 253.221 8.72187C253.265 7.29859 252.02 5.72943 250.072 4.78537C249.427 4.47245 248.724 4.23586 247.984 4.08016C242.542 2.93655 237.874 4.19656 236.089 7.29632C235.188 8.8617 235.038 10.7551 235.689 12.3613C236.24 13.7226 237.618 15.5503 241.045 16.5291C247.022 18.2381 253.83 16.65 256.755 14.9788C259.532 13.3923 272.008 5.70903 272.133 5.63117C272.431 5.4475 272.824 5.54047 273.01 5.83903C273.193 6.13835 273.101 6.5314 272.801 6.71583Z" fill="#1D1D1B"></path>
      <path d="M236.432 6.71583C236.307 6.79368 223.812 14.4883 221.019 16.0847C217.898 17.8677 210.657 19.5623 204.326 17.7543C200.405 16.6342 198.797 14.4633 198.139 12.8398C197.342 10.873 197.52 8.56238 198.617 6.66065C200.195 3.91689 203.613 2.39309 207.814 2.39309C209.105 2.39309 210.469 2.5367 211.877 2.83375C212.719 3.00987 213.519 3.28122 214.258 3.63874C216.758 4.85037 218.276 6.92293 218.126 8.9199C218.118 9.03403 218.099 9.16177 218.074 9.29481C217.729 9.03555 217.319 8.83978 216.852 8.72187C216.895 7.29859 215.651 5.72943 213.703 4.78537C213.058 4.47245 212.355 4.23586 211.615 4.08016C206.173 2.93655 201.505 4.19656 199.72 7.29632C198.818 8.8617 198.669 10.7551 199.32 12.3613C199.871 13.7226 201.248 15.5503 204.676 16.5291C210.653 18.2381 217.461 16.65 220.386 14.9788C223.162 13.3923 235.638 5.70903 235.764 5.63117C236.062 5.4475 236.455 5.54047 236.641 5.83903C236.824 6.13835 236.732 6.5314 236.432 6.71583Z" fill="#1D1D1B"></path>
      <path d="M282.914 12.5835L285.264 10.2334L282.914 7.88333L280.564 10.2334L282.914 12.5835Z" fill="#1D1D1B"></path>
      <path d="M287.069 12.5835L289.419 10.2334L287.069 7.88333L284.719 10.2334L287.069 12.5835Z" fill="#1D1D1B"></path>
      <path d="M148.748 0.606825L140.224 9.13061C139.615 9.73983 139.615 10.727 140.224 11.3362L148.748 19.86C149.357 20.4692 150.345 20.4692 150.953 19.86L159.478 11.3362C160.086 10.727 160.086 9.73983 159.478 9.13061L150.953 0.606825C150.345 -0.00239563 149.357 -0.00239563 148.748 0.606825Z" fill="#1D1D1B"></path>
    </g>
    <defs>
      <clipPath id="clip0_8259_80740">
        <rect width="299.5" height="20.3174" fill="white" transform="matrix(1 0 0 -1 0 20.3174)"></rect>
      </clipPath>
    </defs>
  </symbol>
  <symbol fill="none" xmlns="http://www.w3.org/2000/svg" viewBox="0 0 100 100" id="icon-church">
    <path d="M59.1129 88.8174H44.0938V35.7958L51.6028 22.0857L59.1129 35.7958V88.8174Z" stroke="black" stroke-width="1.01956" stroke-miterlimit="10"></path>
    <path d="M51.6025 22.0847V11.1826" stroke="black" stroke-width="1.01956" stroke-miterlimit="10"></path>
    <path d="M49.5068 15.4785H53.6982" stroke="black" stroke-width="1.01956" stroke-miterlimit="10"></path>
    <path d="M53.6982 60.8273H49.5068V43.2544C49.5068 40.4098 50.1828 37.6018 51.4848 35.0368L51.6031 34.8044L51.7213 35.0368C53.0223 37.6018 53.6982 40.4098 53.6982 43.2544V60.8273Z" stroke="black" stroke-width="1.01956" stroke-miterlimit="10"></path>
    <path d="M53.6982 88.8173H49.5068V83.6179C49.5068 80.7733 50.1828 77.9644 51.4848 75.4003L51.6031 75.167L51.7213 75.4003C53.0223 77.9644 53.6982 80.7733 53.6982 83.6179V88.8173Z" stroke="black" stroke-width="1.01956" stroke-miterlimit="10"></path>
    <path d="M51.6031 72.3814C50.4459 72.3814 49.5068 71.4933 49.5068 70.3988V66.9872C49.5068 65.8927 50.4459 65.0056 51.6031 65.0056C52.7603 65.0056 53.6982 65.8927 53.6982 66.9872V70.3988C53.6982 71.4933 52.7603 72.3814 51.6031 72.3814Z" stroke="black" stroke-width="1.01956" stroke-miterlimit="10"></path>
    <path d="M67.5596 73.4323V70.4652C67.5596 69.3698 66.6216 68.4827 65.4634 68.4827C64.3062 68.4827 63.3682 69.3698 63.3682 70.4652V73.4323H67.5596Z" stroke="black" stroke-width="1.01956" stroke-miterlimit="10"></path>
    <path d="M64.3192 88.8174H59.1133V58.2209H59.9677C67.1902 58.2209 73.0456 63.7578 73.0456 70.5878V80.5642C73.0456 85.1223 69.1386 88.8174 64.3192 88.8174Z" stroke="black" stroke-width="1.01956" stroke-miterlimit="10"></path>
    <path d="M35.6172 73.4323V70.4652C35.6172 69.3698 36.5552 68.4827 37.7134 68.4827C38.8706 68.4827 39.8086 69.3698 39.8086 70.4652V73.4323H35.6172Z" stroke="black" stroke-width="1.01956" stroke-miterlimit="10"></path>
    <path d="M38.8583 88.8174H44.0641V58.2209H43.2087C35.9872 58.2209 30.1318 63.7578 30.1318 70.5878V80.5642C30.1318 85.1223 34.0388 88.8174 38.8583 88.8174Z" stroke="black" stroke-width="1.01956" stroke-miterlimit="10"></path>
    <path d="M70.1895 62.5417C70.7798 61.861 71.2304 61.0712 71.5047 60.2111L76.9675 43.1521" stroke="black" stroke-width="1.01956" stroke-miterlimit="10" stroke-linecap="round" stroke-linejoin="round"></path>
    <path d="M72.1318 59.1794C72.1318 59.1794 75.4862 51.6176 84.6877 53.1267C84.6877 53.1267 80.3607 60.6548 72.1318 59.1794Z" stroke="black" stroke-width="1.01956" stroke-miterlimit="10" stroke-linecap="round" stroke-linejoin="round"></path>
    <path d="M76.6992 43.8397C76.6992 43.8397 79.5326 36.0888 88.8177 37.0358C88.8177 37.0358 85.0107 44.8126 76.6992 43.8397Z" stroke="black" stroke-width="1.01956" stroke-miterlimit="10" stroke-linecap="round" stroke-linejoin="round"></path>
    <path d="M73.1644 53.0118C73.1644 53.0118 64.7531 51.0235 64.9335 42.1926C64.9335 42.1926 73.4581 45.0961 73.1644 53.0118Z" stroke="black" stroke-width="1.01956" stroke-miterlimit="10" stroke-linecap="round" stroke-linejoin="round"></path>
    <path d="M31.1328 84.6699C30.5079 84.0209 30.0164 83.2553 29.6932 82.4116L23.2822 65.6621" stroke="black" stroke-width="1.01956" stroke-miterlimit="10" stroke-linecap="round" stroke-linejoin="round"></path>
    <path d="M29.0113 81.4145C29.0113 81.4145 25.245 74.0388 16.2158 76.0223C16.2158 76.0223 20.9435 83.3151 29.0113 81.4145Z" stroke="black" stroke-width="1.01956" stroke-miterlimit="10" stroke-linecap="round" stroke-linejoin="round"></path>
    <path d="M23.5886 66.3352C23.5886 66.3352 20.3271 58.7435 11.1826 60.1716C11.1826 60.1716 15.4097 67.7373 23.5886 66.3352Z" stroke="black" stroke-width="1.01956" stroke-miterlimit="10" stroke-linecap="round" stroke-linejoin="round"></path>
  </symbol>
  <symbol fill="none" xmlns="http://www.w3.org/2000/svg" viewBox="0 0 100 100" id="icon-camera">
    <g clip-path="url(#clip0_8259_80627)">
      <path d="M54.7187 39.4121H63.3418V43.8827H54.7187V39.4121Z" stroke="black" stroke-width="1.1827" stroke-miterlimit="10" stroke-linecap="round" stroke-linejoin="round"></path>
      <path d="M42.3038 63.1419C42.3038 54.962 48.9349 48.3309 57.1148 48.3309C65.2947 48.3309 71.9258 54.962 71.9258 63.1419C71.9258 71.3218 65.2947 77.9529 57.1148 77.9529C48.9349 77.9529 42.3038 71.3218 42.3038 63.1419Z" stroke="black" stroke-width="1.1827" stroke-miterlimit="10" stroke-linecap="round" stroke-linejoin="round"></path>
      <path d="M47.2721 63.1431C47.2721 57.7073 51.6787 53.3007 57.1146 53.3007C62.5504 53.3007 66.957 57.7073 66.957 63.1431C66.957 68.579 62.5504 72.9856 57.1146 72.9856C51.6787 72.9856 47.2721 68.579 47.2721 63.1431Z" stroke="black" stroke-width="1.1827" stroke-miterlimit="10" stroke-linecap="round" stroke-linejoin="round"></path>
      <path d="M91.303 51.2215V47.308C91.303 45.3589 89.7217 43.7776 87.7714 43.7776H29.554C27.6037 43.7776 26.0225 45.3589 26.0225 47.308V51.2215" stroke="black" stroke-width="1.1827" stroke-miterlimit="10" stroke-linecap="round" stroke-linejoin="round"></path>
      <path d="M48.1568 51.2214H26.0225V78.0404C26.0225 79.9895 27.6037 81.5708 29.554 81.5708H87.7714C89.7217 81.5708 91.303 79.9895 91.303 78.0404V51.2214H66.2143" stroke="black" stroke-width="1.1827" stroke-miterlimit="10" stroke-linecap="round" stroke-linejoin="round"></path>
      <path d="M87.0832 48.0246H79.4867C78.9711 48.0246 78.5488 47.6035 78.5488 47.0867C78.5488 46.571 78.9711 46.1488 79.4867 46.1488H87.0832C87.5989 46.1488 88.0211 46.571 88.0211 47.0867C88.0211 47.6035 87.5989 48.0246 87.0832 48.0246Z" stroke="black" stroke-width="1.1827" stroke-miterlimit="10" stroke-linecap="round" stroke-linejoin="round"></path>
      <path d="M31.9388 78.0357H30.4379C29.7685 78.0357 29.2197 77.487 29.2197 76.8164C29.2197 76.1446 29.7685 75.5958 30.4379 75.5958H31.9388C32.6094 75.5958 33.1581 76.1446 33.1581 76.8164C33.1581 77.487 32.6094 78.0357 31.9388 78.0357Z" stroke="black" stroke-width="1.1827" stroke-miterlimit="10" stroke-linecap="round" stroke-linejoin="round"></path>
      <path d="M70.7044 39.4121H47.3554C46.9226 39.4121 46.5713 39.0608 46.5713 38.6291V26.4307C46.5713 25.9979 46.9226 25.6466 47.3554 25.6466H70.7044C71.1372 25.6466 71.4885 25.9979 71.4885 26.4307V38.6291C71.4885 39.0608 71.1372 39.4121 70.7044 39.4121Z" stroke="black" stroke-width="1.1827" stroke-miterlimit="10" stroke-linecap="round" stroke-linejoin="round"></path>
      <path d="M65.8572 36.4104H52.2017C51.5773 36.4104 51.0723 35.9042 51.0723 35.281V29.779C51.0723 29.1546 51.5773 28.6495 52.2017 28.6495H65.8572C66.4805 28.6495 66.9867 29.1546 66.9867 29.779V35.281C66.9867 35.9042 66.4805 36.4104 65.8572 36.4104Z" stroke="black" stroke-width="1.1827" stroke-miterlimit="10" stroke-linecap="round" stroke-linejoin="round"></path>
      <path d="M66.6875 43.0643C67.6845 42.6515 68.6023 42.0436 69.3805 41.2654L84.8396 25.8063" stroke="black" stroke-width="1.1827" stroke-miterlimit="10" stroke-linecap="round" stroke-linejoin="round"></path>
      <path d="M70.6201 40.4932C70.6201 40.4932 78.4271 34.1503 86.9651 40.8184C86.9651 40.8184 78.1823 46.5912 70.6201 40.4932Z" stroke="black" stroke-width="1.1827" stroke-miterlimit="10" stroke-linecap="round" stroke-linejoin="round"></path>
      <path d="M84.168 26.4024C84.168 26.4024 91.5504 19.5723 100.5 25.6786C100.5 25.6786 92.1063 32.0025 84.168 26.4024Z" stroke="black" stroke-width="1.1827" stroke-miterlimit="10" stroke-linecap="round" stroke-linejoin="round"></path>
      <path d="M75.2444 34.3868C75.2444 34.3868 67.791 27.6336 73.0871 18.1826C73.0871 18.1826 80.1254 25.9873 75.2444 34.3868Z" stroke="black" stroke-width="1.1827" stroke-miterlimit="10" stroke-linecap="round" stroke-linejoin="round"></path>
      <path d="M25.3336 72.7443C24.6003 72.4404 23.9274 71.9945 23.3549 71.4233L12.001 60.0681" stroke="black" stroke-width="0.863374" stroke-miterlimit="10" stroke-linecap="round" stroke-linejoin="round"></path>
      <path d="M22.4449 70.8567C22.4449 70.8567 16.7111 66.1992 10.4404 71.0956C10.4404 71.0956 16.8909 75.3356 22.4449 70.8567Z" stroke="black" stroke-width="0.863374" stroke-miterlimit="10" stroke-linecap="round" stroke-linejoin="round"></path>
      <path d="M12.495 60.5081C12.495 60.5081 7.07228 55.491 0.5 59.9759C0.5 59.9759 6.66425 64.6215 12.495 60.5081Z" stroke="black" stroke-width="0.863374" stroke-miterlimit="10" stroke-linecap="round" stroke-linejoin="round"></path>
      <path d="M19.0488 66.3719C19.0488 66.3719 24.5235 61.4116 20.6336 54.4703C20.6336 54.4703 15.464 60.2029 19.0488 66.3719Z" stroke="black" stroke-width="0.863374" stroke-miterlimit="10" stroke-linecap="round" stroke-linejoin="round"></path>
    </g>
    <defs>
      <clipPath id="clip0_8259_80627">
        <rect width="100" height="100" fill="white"></rect>
      </clipPath>
    </defs>
  </symbol>
  <symbol fill="none" xmlns="http://www.w3.org/2000/svg" viewBox="0 0 100 100" id="icon-champagne">
    <g clip-path="url(#clip0_8259_80586)">
      <path d="M35.7566 40.8087C38.1419 39.3999 40.1996 39.3268 42.0788 39.8898L45.5095 18.0013L27.7838 15.3359L24.7383 34.7807C25.4951 34.4572 26.2421 34.2213 26.8375 34.0344C32.5875 32.725 30.7573 44.4036 35.7566 40.8087Z" stroke="black" stroke-width="1.18595" stroke-miterlimit="10"></path>
      <path d="M41.3848 44.3305L42.0792 39.891C40.2 39.3268 38.1436 39.4011 35.757 40.8098C30.7589 44.4048 32.5892 32.725 26.8392 34.0343C26.2425 34.2224 25.4967 34.4584 24.7399 34.7806L23.6604 41.6639C22.9659 46.1035 25.7951 50.2698 30.1012 51.4486L26.5543 74.0846C22.9415 73.657 20.0707 73.9097 19.9448 74.7195C19.8054 75.6096 23.0197 76.8315 27.1253 77.4484C31.2296 78.0665 34.6701 77.8461 34.8095 76.9561C34.9366 76.1463 32.2762 75.0609 28.6988 74.4069L32.2444 51.772C36.7143 51.9122 40.6891 48.77 41.3848 44.3305Z" stroke="black" stroke-width="1.18595" stroke-miterlimit="10"></path>
      <path d="M61.3025 47.7566C63.0448 45.6291 64.9484 44.8625 66.9119 44.7558L62.4127 23.0542L44.8398 26.5509L48.8378 45.8304C49.4345 45.271 50.0519 44.7954 50.5434 44.4192C55.4779 41.2435 57.8792 52.8227 61.3025 47.7566Z" stroke="black" stroke-width="1.18595" stroke-miterlimit="10"></path>
      <path d="M67.8241 49.157L66.912 44.7558C64.9484 44.8624 63.0448 45.6291 61.3026 47.7566C57.8792 52.8226 55.478 41.2447 50.5435 44.4192C50.052 44.7953 49.4345 45.2709 48.8379 45.8303L50.2525 52.6549C51.1645 57.0561 55.2885 60.009 59.7462 59.658L64.3983 82.0999C60.8575 82.9217 58.2533 84.1292 58.4208 84.933C58.603 85.8147 62.0496 85.8722 66.1197 85.0636C70.1911 84.2526 73.3418 82.881 73.1572 81.9993C72.9921 81.1955 70.1128 81.0781 66.5256 81.6759L61.8723 59.2339C66.116 57.8539 68.7374 53.5581 67.8241 49.157Z" stroke="black" stroke-width="1.18595" stroke-miterlimit="10"></path>
      <path d="M66.9121 80.769C67.8939 80.2467 68.7717 79.5388 69.487 78.6715L83.7098 61.4633" stroke="black" stroke-width="1.18595" stroke-miterlimit="10" stroke-linecap="round" stroke-linejoin="round"></path>
      <path d="M70.6777 77.7622C70.6777 77.7622 78.0184 70.5483 87.5157 76.3595C87.5157 76.3595 79.1102 83.105 70.6777 77.7622Z" stroke="black" stroke-width="1.18595" stroke-miterlimit="10" stroke-linecap="round" stroke-linejoin="round"></path>
      <path d="M83.082 62.1353C83.082 62.1353 89.9349 54.4734 99.7941 59.676C99.7941 59.676 91.8483 66.9366 83.082 62.1353Z" stroke="black" stroke-width="1.18595" stroke-miterlimit="10" stroke-linecap="round" stroke-linejoin="round"></path>
      <path d="M74.772 71.1222C74.772 71.1222 66.3799 65.1074 70.8034 55.0269C70.8034 55.0269 78.8825 62.1449 74.772 71.1222Z" stroke="black" stroke-width="1.18595" stroke-miterlimit="10" stroke-linecap="round" stroke-linejoin="round"></path>
      <path d="M21.6126 75.5283C20.9683 75.1845 20.3912 74.7185 19.9192 74.1495L10.5723 62.8386" stroke="black" stroke-width="0.782725" stroke-miterlimit="10" stroke-linecap="round" stroke-linejoin="round"></path>
      <path d="M19.1375 73.5505C19.1375 73.5505 14.313 68.8091 8.07031 72.6293C8.07031 72.6293 13.5954 77.0628 19.1375 73.5505Z" stroke="black" stroke-width="0.782725" stroke-miterlimit="10" stroke-linecap="round" stroke-linejoin="round"></path>
      <path d="M10.9841 63.2805C10.9841 63.2805 6.47992 58.2445 0 61.6633C0 61.6633 5.22184 66.4359 10.9841 63.2805Z" stroke="black" stroke-width="0.782725" stroke-miterlimit="10" stroke-linecap="round" stroke-linejoin="round"></path>
      <path d="M16.447 69.1875C16.447 69.1875 21.9635 65.2344 19.0561 58.6086C19.0561 58.6086 13.745 63.2865 16.447 69.1875Z" stroke="black" stroke-width="0.782725" stroke-miterlimit="10" stroke-linecap="round" stroke-linejoin="round"></path>
    </g>
    <defs>
      <clipPath id="clip0_8259_80586">
        <rect width="100" height="100" fill="white"></rect>
      </clipPath>
    </defs>
  </symbol>
</svg>