<!-- Generated by IcoMoon.io -->
<svg version="1.1" xmlns="http://www.w3.org/2000/svg" width="1173" height="1024" viewBox="0 0 1173 1024">
<g id="icomoon-ignore">
</g>
<path fill="#b09a0c" d="M856.309 131.019c-7.424-9.857-20.747-27.549-30.66-29.151-24.589 51.117-31.558 112.359-12.855 166.435 8.99 25.99 23.070 47.723 37.504 69.997 4.209 6.498 8.45 13.041 12.602 19.75-13.269 64.853-50.921 123.247-92.74 173.591-11.151 13.431-22.933 27.546-35.923 39.204 22.579-40.843 28.367-87.337 15.439-132.457-10.21-35.627-33.082-67.238-66.031-85.015-29.585-15.966-66.507-18.601-98.468-8.638-36.629 11.413-65.478 37.404-83.119 71.196-5.702 10.929-9.965 22.34-13.312 34.185-17.257-35.428-42.174-64.565-80.525-77.609-30.14-10.253-64.215-9.043-92.902 5.109-26.859 13.564-47.221 37.25-56.602 65.837-12.969 38.532-7.002 79.951 11.046 115.821 26.372 52.412 77.532 97.53 124.501 138.953 12.463 10.989 24.629 21.719 35.959 32.256l49.267 45.95c2.353 2.195 4.715 4.489 7.095 6.801 7.147 6.944 14.496 14.084 22.549 19.422 3.563-0.881 6.524-3.597 9.276-6.123 0.371-0.339 0.738-0.676 1.103-1.005 25.090-22.62 49.31-46.37 73.498-70.089 10.967-10.754 21.929-21.502 32.96-32.134 13.353-12.873 26.874-25.587 40.397-38.302 19.078-17.939 38.161-35.883 56.781-54.281 14.11-13.939 27.793-28.307 41.039-43.085 24.017-26.724 45.609-55.535 64.533-86.086 6.539-10.79 12.023-21.973 17.508-33.158 4.062-8.282 8.124-16.563 12.612-24.687 13.978-25.325 38.165-46.121 61.303-62.795 66.519 13.079 130.163 18.362 189.175-21.446 12.124-8.181 47.887-35.479 52.286-49.626-1.267-3.319-2.959-4.151-6.153-5.666-6.865-3.26-14.588-5.355-22.031-7.371-1.182-0.32-2.357-0.64-3.522-0.96-40.77-11.255-84.126-13.103-124.045 2.528-25.675 10.054-52.785 26.814-71.381 47.383-3.125 3.458-6.012 7.196-8.896 10.933-3.904 5.056-7.81 10.118-12.331 14.5-7.358 7.138-15.27 13.835-23.194 20.542-6.891 5.83-13.792 11.669-20.343 17.813 2.037-15.535 6.758-25.707 11.855-36.683 2.953-6.364 6.033-12.996 8.787-21.103 22.884-67.29 11.733-131.306-31.584-187.493-0.719-0.932-1.545-2.030-2.46-3.245zM618.031 354.327c2.889-0.211 5.764-0.207 8.653-0.164 29.513 0.521 57.551 12.911 77.813 34.368 25.577 26.707 37.837 65.024 36.787 101.628-0.853 29.395-10.259 57.438-25.491 82.441-22.645 37.137-56.284 68.299-88.698 98.325-7.535 6.978-15.008 13.901-22.259 20.821l-95.341 91.524c-30.315-29.282-61.724-57.638-93.062-85.933l-0.109-0.098c-8.354-7.541-16.727-15.1-25.047-22.65l-0.258-0.226c-43.838-38.432-95.522-83.742-115.678-139.819-11.426-31.793-11.9-67.074 2.743-97.929 11.104-23.733 31.371-41.937 56.154-50.441 26.782-9.186 56.034-6.114 81.246 6.31 27.447 13.523 48.926 38.332 60.258 66.586 2.027 5.050 3.595 10.27 5.163 15.49 1.047 3.49 2.097 6.98 3.281 10.419 2.982 2.4 3.812 2.615 7.61 3.3 2.468-1.619 8.273-19.866 13.271-35.575 3.006-9.453 5.724-17.995 7.245-21.434 5.421-12.442 12.608-24.036 21.338-34.426 22.080-26.199 50.605-39.567 84.382-42.519zM701.355 404.578c-41.807 0.542-83.614 0.663-125.423 0.361-9.327 25.38-21.054 50.315-32.683 75.044-4.29 9.122-8.576 18.231-12.715 27.313-29.602 64.962-59.543 129.764-89.826 194.406 6.37 5.568 12.657 11.221 18.863 16.973 16.93-40.156 35.58-79.601 54.227-119.040 19.159-40.525 38.321-81.052 55.616-122.349l1.997-3.177c1.833 1.892 1.903 4.774 1.969 7.443 0.009 0.363 0.017 0.721 0.030 1.073 0.599 15.876 0.393 31.906 0.186 47.898-0.105 8.087-0.209 16.166-0.209 24.207l0.256 147.471c6.886-6.564 13.749-13.225 20.627-19.895 18.355-17.807 36.815-35.712 56.102-52.215 0.499-33.376 0.608-66.754 0.329-100.128-0.023-5.109-0.137-10.308-0.252-15.554-0.38-17.34-0.77-35.17 2.091-51.836 1.877-10.961 5.229-22.421 13.344-30.415 11.563-11.407 28.587-13.713 44.085-14.487-0.894-1.361-1.779-2.729-2.665-4.098-1.956-3.021-3.913-6.044-5.95-8.994zM876.866 185.69c20.107 46.045 17.865 95.052-0.158 141.356 0.183-34.466-1.766-67.081-11.004-100.553-0.149-0.542-0.324-1.188-0.512-1.879-2.473-9.12-8.134-29.989-14.56-33.652l-2.255 2.288c12.928 49.736 18.327 95.997 15.866 147.444-10.564-16.085-21.069-32.158-29.634-49.434-29.647-59.795-25.444-110.246-4.838-172.021 16.657 10.187 39.14 48.242 47.095 66.449zM1053.028 268.958c32.218-2.182 63.191 3.65 94.007 12.638-13.075 14.846-28.928 28.41-45.34 39.422-50.765 34.061-107.767 32.324-165.44 20.911 13.318-7.324 27.697-13.077 41.82-18.665 21.105-7.91 42.978-13.694 64.911-18.767 3.364-0.777 6.825-1.329 10.291-1.882 4.975-0.794 9.958-1.589 14.677-3.053 2.242-0.698 3.959-1.455 5.591-3.209 0.969-1.037 0.954-1.133 0.826-2.001-0.036-0.247-0.083-0.559-0.117-0.971-0.064-0.038-0.128-0.079-0.19-0.119-0.047-0.032-0.096-0.066-0.145-0.098-0.205-0.141-0.41-0.279-0.64-0.378-3.119-1.348-8.945-0.606-13.463-0.032-1.254 0.16-2.411 0.307-3.377 0.393-40.917 3.625-77.619 17.026-115.273 32.414 30.671-31.665 67.895-51.699 111.861-56.604z"></path>
<path fill="#fff" d="M701.361 404.576c-41.807 0.544-83.614 0.663-125.421 0.363-9.327 25.378-21.052 50.306-32.681 75.036-4.292 9.126-8.576 18.236-12.719 27.319-29.6 64.964-59.543 129.764-89.826 194.406 6.37 5.57 12.657 11.223 18.863 16.975 16.93-40.158 35.58-79.599 54.225-119.038 19.162-40.527 38.323-81.054 55.618-122.351l1.999-3.179c1.833 1.894 1.903 4.768 1.967 7.437 0.009 0.365 0.017 0.727 0.030 1.082 0.599 15.876 0.393 31.906 0.186 47.898-0.105 8.087-0.209 16.164-0.209 24.207l0.256 147.471c6.889-6.566 13.751-13.225 20.627-19.895 18.357-17.807 36.815-35.712 56.102-52.218 0.499-33.376 0.61-66.752 0.329-100.126-0.021-5.109-0.137-10.31-0.25-15.556-0.382-17.338-0.772-35.17 2.091-51.836 1.877-10.959 5.227-22.421 13.342-30.415 11.565-11.407 28.587-13.713 44.087-14.485-0.894-1.361-1.779-2.731-2.667-4.1-1.954-3.019-3.913-6.044-5.95-8.994z"></path>
<path fill="#000" d="M575.913 404.939c41.807 0.301 83.614 0.181 125.423-0.363 2.961 4.29 5.751 8.73 8.614 13.094-15.499 0.772-32.523 3.078-44.085 14.485-8.115 7.994-11.467 19.456-13.344 30.415-3.729 21.707-1.937 45.393-1.839 67.392 0.279 33.374 0.171 66.75-0.331 100.126-26.513 22.688-51.458 48.021-76.73 72.113l-0.256-147.471c0-23.945 0.926-48.201 0.026-72.105-0.111-2.944 0.085-6.366-1.999-8.518l-1.999 3.179c-34.125 81.487-75.516 159.968-109.841 241.389-6.206-5.751-12.495-11.405-18.865-16.975 30.283-64.642 60.226-129.442 89.828-194.406 15.364-33.702 32.627-67.607 45.397-102.355z"></path>
<path fill="#000" d="M875.605 404.794c20.676 0.796 161.075-1.335 166.071 1.18 0.316 1.647 0.768 3.482 0.791 5.18 0.036 4.753-0.365 5.828-5.118 6.315-33.327 3.401-55.503 9.436-81.995 31.637-27.501 23.042-52.48 50.351-77.728 75.81l-112.482 112.608c54.869 61.389 108.205 124.045 162.588 185.847 29.658 33.717 68.674 85.346 104.646 109.107 11.733 7.761 25.515 14.78 39.236 18.191 10.295 2.56 24.966 2.718 34.093 8.019 0.026 3.618 0.83 6.494-1.376 9.468-19.569 1.609-39.991 0.207-59.671-0.073-33.754-0.719-67.531-0.879-101.295-0.489-12.002 0.147-66.276 3.095-73.709 0.817l-0.926-4.314c3.644-10.931 22.323-8.676 31.377-15.232 4.544-3.29 7.166-7.665 7.676-13.282 0.757-8.139-2.351-15.962-6.347-22.871-10.225-17.73-25.76-33.508-39.042-49.094l-63.217-74.048c-28.721-33.303-57.137-67.019-86.795-99.492-20.422 20.593-41.527 40.405-61.803 61.193l0.060 95.546c0.026 18.679-0.975 38.249 1.060 56.819 4.412 40.090 21.591 49.216 59.475 52.092 6.532 0.499 13.026 0.256 18.377 4.484 1.365 3.168 1.559 3.851 1.205 7.262-3.349 1.645-7.531 1.717-11.198 1.766-46.534 0.634-93.252-0.755-139.825-0.523-19.923 0.109-64.358 2.692-82.225-0.22-0.335-1.572-0.785-3.279-0.821-4.898-0.019-0.841 0.134-5.131 0.587-5.741 0.612-0.828 46.709-1.559 61.66-16.851 6.569-6.714 9.956-16.499 11.723-25.553 4.228-21.664 2.594-45.182 2.498-67.151-0.196-28.015-0.22-56.028-0.049-84.043 24.589-25.406 51.275-49.301 77.071-73.5l0.427 28.939c21.19-22.323 44.207-43.343 66.116-65.020l113.395-113.745c22.080-22.208 46.671-44.122 66.618-68.198 5.289-6.394 11.868-14.816 13.001-23.177 0.926-6.899 0.134-13.79-4.422-19.294-7.921-9.568-21.41-10.899-32.877-12.265l3.17-13.207z"></path>
<path fill="#000" d="M9.417 405.163c50.542 0.326 101.085 0.243 151.625-0.245 20.287 48.683 43.293 96.403 65.021 144.465l141.419 312.126c17.971-39.637 36.48-79.031 55.522-118.172 5.901 5.082 11.477 10.639 17.15 15.974-22.315 47.876-44.32 95.898-66.012 144.053-8.548 18.729-19.46 48.279-30.53 64.887-3.057 0.559-5.948 1.412-9.003 0.474-16.499-29.001-31.287-67.226-45.417-98.212l-88.838-195.17c-29.943-61.449-58.132-124.096-86.272-186.391 1.931 93.931 0.23 188.318 0.253 282.289 0.009 39.334-3.645 105.926 4.847 142.129 6.937 29.585 26.703 40.162 55.189 42.257 7.178 0.538 15.713 0.075 21.987 4.021 1.781 3.194 1.892 3.814 1.83 7.482-0.325 0.196-0.629 0.439-0.975 0.61-3.083 1.498-7.304 1.498-10.694 1.559-37.979 0.719-76.192-0.183-114.195-0.158-14.039 0-49.383 2.217-61.393-0.866-1.12-2.547-1.301-3.582-0.731-6.313 6.469-8.602 40.010-6.848 53.694-15.243 13.077-8.030 19.845-20.862 23.381-35.373 7.571-31.074 4.27-67.311 4.183-99.262l-0.273-132.416-0.080-132.459c-0.019-24.523 1.19-49.7-0.785-74.106-0.859-10.615-3.096-20.258-8.849-29.419-16.758-26.679-44.191-21.44-70.222-27.435-2.316-3.264-1.705-7.145-1.835-11.089z"></path>
</svg>
