<svg width="130" height="99" viewBox="-1 9 131 100" fill="none" xmlns="http://www.w3.org/2000/svg">
  <g clip-path="url(#clip0_8202_53943)">
    <path fill-rule="evenodd" clip-rule="evenodd" d="M93.9828 14.3801C93.1682 13.2983 91.706 11.3565 90.6179 11.1807C87.9191 16.7909 87.1541 23.5125 89.2069 29.4475C90.1936 32.3001 91.739 34.6852 93.323 37.1298C93.7851 37.843 94.2504 38.5612 94.7062 39.2976C93.2498 46.4154 89.1173 52.8244 84.5275 58.3497C83.3038 59.8239 82.0106 61.3731 80.5849 62.6525C83.0631 58.1699 83.6983 53.0672 82.2794 48.1151C81.1587 44.2049 78.6484 40.7354 75.0322 38.7843C71.7851 37.0321 67.7329 36.7428 64.225 37.8362C60.2047 39.0889 57.0385 41.9415 55.1025 45.6503C54.4765 46.8497 54.0088 48.1021 53.6413 49.4022C51.7473 45.5138 49.0127 42.3157 44.8036 40.8842C41.4956 39.7591 37.7557 39.8918 34.6071 41.4451C31.6594 42.9337 29.4246 45.5333 28.3949 48.6709C26.9717 52.9001 27.6265 57.4458 29.6072 61.3826C32.5017 67.1351 38.1168 72.0869 43.2719 76.6332C44.6396 77.8393 45.9749 79.0169 47.2185 80.1734L52.6257 85.2166C52.8841 85.4575 53.1431 85.7092 53.4044 85.963C54.1888 86.725 54.9954 87.5088 55.8793 88.0946C56.2704 87.9979 56.5953 87.6999 56.8974 87.4227C56.9381 87.3853 56.9784 87.3483 57.0184 87.3122C59.7721 84.8297 62.4304 82.223 65.0851 79.6199C66.2887 78.4396 67.4917 77.26 68.7025 76.0931C70.168 74.6803 71.652 73.2848 73.1361 71.8893C75.23 69.9204 77.3245 67.9509 79.3679 65.9318C80.9166 64.4018 82.4185 62.825 83.8722 61.2031C86.5082 58.2698 88.878 55.1079 90.9549 51.7549C91.6726 50.5705 92.2746 49.343 92.8766 48.1155C93.3223 47.2065 93.7681 46.2975 94.2608 45.4061C95.7948 42.6265 98.4495 40.3441 100.989 38.5141C108.29 39.9497 115.275 40.5293 121.752 36.1604C123.082 35.2623 127.008 32.2662 127.49 30.7137C127.351 30.3494 127.165 30.2582 126.815 30.0919C126.062 29.734 125.214 29.5043 124.397 29.2828C124.267 29.2476 124.138 29.2127 124.011 29.1775C119.536 27.9421 114.777 27.7394 110.396 29.455C107.578 30.5584 104.603 32.398 102.562 34.6556C102.219 35.035 101.902 35.4453 101.585 35.8554C101.157 36.4104 100.728 36.9659 100.232 37.4469C99.4246 38.2303 98.5561 38.9653 97.6864 39.7013C96.9301 40.3414 96.1729 40.9823 95.4538 41.6566C95.6773 39.9515 96.1955 38.8352 96.7548 37.6305C97.079 36.9321 97.4169 36.204 97.7193 35.3144C100.231 27.929 99.0072 20.903 94.2528 14.7363C94.174 14.634 94.0832 14.5135 93.9828 14.3801ZM67.8311 38.8889C68.1481 38.8658 68.4637 38.8663 68.7806 38.8708C72.0197 38.9281 75.097 40.2879 77.321 42.643C80.1282 45.5742 81.4736 49.7795 81.3586 53.797C81.2649 57.0232 80.2325 60.101 78.5608 62.8451C76.0753 66.9211 72.3834 70.341 68.8258 73.6365C67.9988 74.4025 67.1786 75.1623 66.3827 75.9219L55.9189 85.9668C52.5917 82.7531 49.1444 79.6408 45.7049 76.5356L45.693 76.5248C44.7761 75.6971 43.8572 74.8674 42.9439 74.0389L42.9156 74.0141C38.1042 69.796 32.4318 64.823 30.2197 58.6684C28.9656 55.1791 28.9135 51.3069 30.5207 47.9205C31.7393 45.3157 33.9638 43.3177 36.6839 42.3845C39.6232 41.3763 42.8337 41.7134 45.6009 43.077C48.6132 44.5612 50.9707 47.2841 52.2144 50.3851C52.4367 50.9394 52.6088 51.5123 52.7809 52.0852C52.8959 52.4681 53.011 52.8512 53.1411 53.2287C53.4683 53.4921 53.5595 53.5157 53.9761 53.5908C54.2471 53.4133 54.8843 51.4105 55.4327 49.6865C55.7628 48.6489 56.061 47.7115 56.228 47.3339C56.8228 45.9685 57.6116 44.696 58.5698 43.5556C60.9931 40.6802 64.1239 39.2129 67.8311 38.8889ZM76.9761 44.4041C72.3876 44.4637 67.7991 44.4769 63.2106 44.4438C62.1869 47.2292 60.8999 49.9659 59.6234 52.68C59.1525 53.6812 58.6823 54.6811 58.2279 55.6778C54.9791 62.8077 51.6928 69.9198 48.3692 77.0145C49.0683 77.6257 49.7584 78.2462 50.4395 78.8774C52.2976 74.4701 54.3445 70.141 56.3911 65.8124C58.494 61.3646 60.597 56.9166 62.4951 52.3842L62.7144 52.0355C62.9155 52.2432 62.9232 52.5595 62.9304 52.8523C62.9313 52.8922 62.9323 52.9316 62.9337 52.9703C62.9995 54.7127 62.9767 56.4721 62.954 58.2272C62.9425 59.1148 62.9311 60.0014 62.9311 60.884L62.9591 77.0694C63.715 76.3488 64.4684 75.618 65.2231 74.8858C67.2378 72.9315 69.2636 70.9663 71.3805 69.1548C71.4354 65.4918 71.4474 61.8285 71.4166 58.1655C71.4142 57.6048 71.4017 57.0341 71.389 56.4584C71.3473 54.5554 71.3044 52.5983 71.6186 50.7692C71.8245 49.5663 72.1923 48.3084 73.083 47.431C74.3522 46.1791 76.2205 45.926 77.9216 45.8412C77.8235 45.6917 77.7263 45.5415 77.629 45.3912C77.4145 45.0599 77.1996 44.7279 76.9761 44.4041ZM96.2391 20.3804C95.3658 18.3821 92.8984 14.2054 91.0702 13.0874C88.8087 19.8674 88.3473 25.4045 91.6011 31.9674C92.5413 33.8634 93.6941 35.6273 94.8536 37.3928C95.1238 31.7463 94.5313 26.6689 93.1124 21.2103L93.3598 20.9591C94.0652 21.3611 94.6864 23.6516 94.9578 24.6524C94.9784 24.7284 94.9977 24.7993 95.0141 24.8589C96.0278 28.5325 96.2418 32.1119 96.2217 35.8947C98.1997 30.8127 98.4458 25.4341 96.2391 20.3804ZM115.573 29.5193C119.109 29.2798 122.509 29.92 125.891 30.9064C124.456 32.5359 122.716 34.0245 120.915 35.2331C115.343 38.9714 109.087 38.7807 102.757 37.5281C104.219 36.7244 105.797 36.0929 107.347 35.4796C109.664 34.6115 112.064 33.9766 114.471 33.42C114.84 33.3347 115.22 33.2741 115.601 33.2134C116.147 33.1263 116.694 33.039 117.212 32.8784C117.458 32.8019 117.646 32.7187 117.825 32.5261C117.932 32.4124 117.93 32.4018 117.916 32.3065C117.912 32.2794 117.907 32.2453 117.903 32.2001C117.896 32.1958 117.889 32.1914 117.882 32.1869C117.877 32.1834 117.872 32.1798 117.867 32.1762C117.844 32.1608 117.821 32.1455 117.796 32.1347C117.454 31.9868 116.814 32.0681 116.319 32.1312C116.181 32.1487 116.054 32.1649 115.948 32.1743C111.457 32.572 107.429 34.043 103.296 35.7318C106.662 32.2564 110.748 30.0577 115.573 29.5193Z" fill="#B09A0C"/>
    <path fill-rule="evenodd" clip-rule="evenodd" d="M76.9776 44.4038C72.3891 44.4635 67.8006 44.4767 63.2121 44.4435C62.1885 47.229 60.9017 49.9649 59.6253 52.6791C59.1542 53.6807 58.684 54.6804 58.2295 55.6775C54.9806 62.8074 51.6943 69.9195 48.3707 77.0143C49.0699 77.6254 49.7599 78.246 50.4411 78.8772C52.2992 74.4699 54.3458 70.1411 56.3924 65.8125C58.4955 61.3646 60.5985 56.9165 62.4966 52.384L62.7159 52.0352C62.9171 52.243 62.9248 52.5585 62.9319 52.8514C62.9329 52.8915 62.9338 52.9311 62.9353 52.97C63.001 54.7125 62.9782 56.4719 62.9555 58.227C62.9441 59.1145 62.9326 60.0011 62.9326 60.8838L62.9607 77.0691C63.7166 76.3485 64.4699 75.6178 65.2246 74.8856C67.2393 72.9312 69.2651 70.966 71.3821 69.1546C71.4369 65.4915 71.4489 61.8282 71.4182 58.1653C71.4157 57.6046 71.4032 57.0338 71.3906 56.4581C71.3488 54.5551 71.3059 52.5981 71.6201 50.769C71.8261 49.566 72.1938 48.3081 73.0845 47.4308C74.3537 46.1789 76.222 45.9257 77.9231 45.8409C77.8251 45.6915 77.7278 45.5413 77.6305 45.391C77.416 45.0596 77.2011 44.7277 76.9776 44.4038Z" fill="white"/>
    <path d="M63.2091 44.4435C67.7976 44.4767 72.3861 44.4635 76.9746 44.4038C77.2996 44.8747 77.6059 45.3619 77.9202 45.8409C76.2191 45.9257 74.3507 46.1789 73.0816 47.4308C72.1909 48.3081 71.8231 49.566 71.6172 50.769C71.2079 53.1514 71.4045 55.751 71.4152 58.1653C71.446 61.8282 71.434 65.4915 71.3791 69.1546C68.469 71.6447 65.7314 74.4251 62.9577 77.0691L62.9296 60.8838C62.9296 58.2557 63.0313 55.5937 62.9323 52.97C62.9203 52.6469 62.9417 52.2714 62.713 52.0352L62.4937 52.384C58.7484 61.3275 54.2056 69.9409 50.4381 78.8772C49.757 78.246 49.0669 77.6254 48.3677 77.0143C51.6914 69.9195 54.9777 62.8074 58.2265 55.6775C59.9128 51.9784 61.8076 48.2573 63.2091 44.4435Z" fill="black"/>
    <path d="M96.1013 44.4277C98.3708 44.515 113.78 44.2811 114.328 44.5571C114.363 44.7378 114.413 44.9392 114.415 45.1255C114.419 45.6472 114.375 45.7653 113.854 45.8186C110.196 46.1918 107.762 46.8543 104.854 49.291C101.836 51.8198 99.0944 54.8171 96.3233 57.6113L83.9781 69.9704C90.0003 76.7081 95.8539 83.5848 101.823 90.3679C105.078 94.0684 109.36 99.7349 113.308 102.343C114.596 103.195 116.108 103.965 117.614 104.339C118.744 104.62 120.354 104.638 121.356 105.219C121.359 105.617 121.447 105.932 121.205 106.259C119.057 106.435 116.816 106.281 114.656 106.25C110.951 106.172 107.244 106.154 103.538 106.197C102.221 106.213 96.2645 106.537 95.4487 106.287L95.347 105.813C95.7469 104.614 97.7971 104.861 98.7908 104.141C99.2896 103.78 99.5771 103.3 99.6333 102.684C99.7162 101.79 99.3752 100.932 98.9365 100.173C97.8145 98.2276 96.1094 96.4958 94.6516 94.7853L87.7134 86.6581C84.5612 83.0031 81.4425 79.3026 78.1873 75.7385C75.9459 77.9986 73.6296 80.1732 71.4042 82.4547L71.4109 92.941C71.4136 94.9912 71.3039 97.139 71.5272 99.1772C72.0114 103.577 73.897 104.579 78.0549 104.894C78.7717 104.949 79.4846 104.922 80.0717 105.387C80.2214 105.734 80.2428 105.809 80.2041 106.184C79.8363 106.364 79.3776 106.372 78.975 106.378C73.8676 106.447 68.7402 106.295 63.6288 106.32C61.4422 106.332 56.5651 106.616 54.6042 106.296C54.5674 106.123 54.5181 105.936 54.5141 105.758C54.5121 105.666 54.5289 105.195 54.5784 105.128C54.6457 105.038 59.7051 104.957 61.3459 103.279C62.0667 102.542 62.4385 101.468 62.6324 100.474C63.0965 98.0966 62.9173 95.5155 62.9066 93.1042C62.8852 90.0296 62.8825 86.955 62.9012 83.8804C65.6 81.092 68.5289 78.4694 71.3601 75.8134L71.4069 78.9896C73.7325 76.5396 76.2588 74.2326 78.6634 71.8535L91.1089 59.3695C93.5323 56.9321 96.231 54.5269 98.4203 51.8844C99.0007 51.1827 99.7229 50.2585 99.8473 49.3408C99.9489 48.5837 99.862 47.8274 99.3618 47.2232C98.4925 46.1732 97.0121 46.027 95.7536 45.8773L96.1013 44.4277Z" fill="black"/>
    <path d="M1.03351 44.4684C6.58063 44.5043 12.1279 44.4952 17.6749 44.4414C19.9015 49.7846 22.4264 55.022 24.8112 60.2971L40.3323 94.554C42.3047 90.2035 44.3362 85.8798 46.4261 81.5842C47.0738 82.1419 47.6858 82.7517 48.3084 83.3375C45.8593 88.592 43.4442 93.8625 41.0633 99.1478C40.1251 101.203 38.9275 104.446 37.7126 106.269C37.3771 106.331 37.0597 106.424 36.7246 106.321C34.9137 103.139 33.2906 98.9432 31.74 95.5423L21.9896 74.1217C18.7033 67.3774 15.6095 60.5016 12.5209 53.6644C12.7329 63.9738 12.5462 74.333 12.5488 84.6468C12.5497 88.9638 12.1488 96.2725 13.0808 100.246C13.8421 103.493 16.0115 104.654 19.138 104.884C19.9258 104.943 20.8625 104.892 21.5511 105.325C21.7466 105.675 21.7588 105.744 21.752 106.146C21.7163 106.168 21.683 106.194 21.645 106.213C21.3066 106.378 20.8434 106.378 20.4713 106.384C16.303 106.463 12.109 106.364 7.93806 106.367C6.39728 106.367 2.51812 106.61 1.20001 106.272C1.07711 105.992 1.05718 105.879 1.11977 105.579C1.82978 104.635 5.51101 104.828 7.01287 103.906C8.44813 103.025 9.1909 101.617 9.57901 100.024C10.4099 96.6135 10.0476 92.6362 10.0381 89.1296L10.0082 74.5965L9.99934 60.0588C9.9972 57.3672 10.13 54.6039 9.91322 51.9253C9.81894 50.7603 9.57339 49.7019 8.94202 48.6965C7.10274 45.7683 4.09193 46.3434 1.23491 45.6854C0.98068 45.3273 1.04782 44.9013 1.03351 44.4684Z" fill="black"/>
  </g>
  <defs>
    <clipPath id="clip0_8202_53943">
      <rect width="262.237" height="112.387" fill="white"/>
    </clipPath>
  </defs>
</svg>
